<?xml version="1.0" encoding="UTF-8" standalone="no"?>
<!-- Created with Inkscape (http://www.inkscape.org/) -->

<svg
   xmlns:dc="http://purl.org/dc/elements/1.1/"
   xmlns:cc="http://creativecommons.org/ns#"
   xmlns:rdf="http://www.w3.org/1999/02/22-rdf-syntax-ns#"
   xmlns:svg="http://www.w3.org/2000/svg"
   xmlns="http://www.w3.org/2000/svg"
   xmlns:sodipodi="http://sodipodi.sourceforge.net/DTD/sodipodi-0.dtd"
   xmlns:inkscape="http://www.inkscape.org/namespaces/inkscape"
   width="744.09448819"
   height="1052.3622047"
   id="svg2"
   version="1.1"
   inkscape:version="0.48.2 r9819"
   sodipodi:docname="scienceclouds.svg">
  <defs
     id="defs4">
    <filter
       id="filter3188"
       inkscape:label="Invert"
       x="0"
       y="0"
       width="1"
       height="1"
       inkscape:menu="Color"
       inkscape:menu-tooltip="Invert colors"
       color-interpolation-filters="sRGB">
      <feColorMatrix
         id="feColorMatrix3190"
         type="saturate"
         values="1"
         result="fbSourceGraphic" />
      <feColorMatrix
         id="feColorMatrix3192"
         in="fbSourceGraphic"
         values="-1 0 0 0 1 0 -1 0 0 1 0 0 -1 0 1 0 0 0 1 0 " />
    </filter>
  </defs>
  <sodipodi:namedview
     id="base"
     pagecolor="#ffffff"
     bordercolor="#666666"
     borderopacity="1.0"
     inkscape:pageopacity="0.0"
     inkscape:pageshadow="2"
     inkscape:zoom="2"
     inkscape:cx="336.07208"
     inkscape:cy="476.20842"
     inkscape:document-units="px"
     inkscape:current-layer="layer1"
     showgrid="false"
     showguides="true"
     inkscape:guide-bbox="true"
     inkscape:window-width="1477"
     inkscape:window-height="879"
     inkscape:window-x="16"
     inkscape:window-y="58"
     inkscape:window-maximized="0">
    <sodipodi:guide
       orientation="0,1"
       position="339.64332,400.35433"
       id="guide4574" />
    <sodipodi:guide
       orientation="0,1"
       position="340.95904,382.68611"
       id="guide4576" />
    <sodipodi:guide
       orientation="0,1"
       position="390.48263,389.68518"
       id="guide4578" />
    <sodipodi:guide
       orientation="0,1"
       position="313.23497,379.77273"
       id="guide4582" />
  </sodipodi:namedview>
  <metadata
     id="metadata7">
    <rdf:RDF>
      <cc:Work
         rdf:about="">
        <dc:format>image/svg+xml</dc:format>
        <dc:type
           rdf:resource="http://purl.org/dc/dcmitype/StillImage" />
        <dc:title></dc:title>
      </cc:Work>
    </rdf:RDF>
  </metadata>
  <g
     inkscape:label="Layer 1"
     inkscape:groupmode="layer"
     id="layer1">
    <rect
       style="fill:#000000;fill-opacity:1;stroke-width:4.4000001;stroke-linecap:round;stroke-linejoin:round;stroke-miterlimit:4;stroke-dasharray:none"
       id="rect3771"
       width="473.65863"
       height="316.52426"
       x="121.77579"
       y="417.09592" />
    <path
       style="fill:#000000;fill-opacity:1;stroke-width:0.89999998000000003;stroke-miterlimit:4;stroke-dasharray:none"
       d="m 369.50168,543.62956 c -10.09668,0.22464 -19.71436,6.25886 -24.54114,15.16778 -8.45454,-5.83552 -21.38094,-1.39385 -24.34941,8.43601 -1.26044,2.4158 0.32542,6.28461 -3.33843,6.47368 -12.55137,4.69505 -18.70938,20.87131 -12.1915,32.74528 4.3868,9.2159 15.16134,14.17667 25.24415,12.93096 21.99167,-0.18089 44.08896,0.35524 66.0182,-0.25564 13.7399,-1.75344 23.41813,-16.77191 19.19406,-30.07993 -2.14517,-7.6879 -8.41341,-13.90902 -16.06251,-16.16903 0.50609,-16.02793 -13.90995,-30.14937 -29.97342,-29.24911 z m 0.95864,5.64531 c 13.45413,-0.39485 25.07003,12.59634 23.24164,25.90453 0.36629,3.70628 5.24713,2.62527 7.49869,4.51625 9.8461,4.76681 12.84588,19.04541 5.58161,27.35289 -4.65653,6.17065 -12.93167,7.46728 -20.19553,6.73202 -20.88609,-0.12794 -41.80788,0.24669 -62.67362,-0.17043 -11.23442,-1.03906 -18.98296,-13.96766 -14.61389,-24.3494 2.24551,-6.41853 8.49923,-10.63792 14.95474,-11.7593 2.87355,-1.84356 0.0433,-6.03163 1.81077,-8.71296 2.30968,-7.25328 12.89141,-9.39388 17.78806,-3.49369 1.96668,2.27616 5.31778,0.1206 5.47489,-2.51376 3.69912,-8.10055 12.18972,-13.59126 21.13264,-13.50615 z"
       id="cloud2"
       inkscape:connector-curvature="0"
       inkscape:export-filename="/Users/patricka/Desktop/sciencecloudslogo.png"
       inkscape:export-xdpi="157.9688"
       inkscape:export-ydpi="157.9688" />
    <g
       id="g3977"
       inkscape:export-filename="/Users/patricka/Desktop/sciencecloudslogo-beaker.png"
       inkscape:export-xdpi="157.9688"
       inkscape:export-ydpi="157.9688">
      <g
         style="filter:url(#filter3188)"
         transform="matrix(1.9374299,0,0,1.9374299,263.39825,443.72011)"
         id="g3184">
        <g
           id="g3174">
</g>
        <g
           id="g3974">
          <path
             id="path3176"
             d="m 90.808,76.847 c -0.012,-0.02 -0.032,-0.029 -0.046,-0.048 -0.014,-0.02 -0.015,-0.042 -0.028,-0.06 L 75.244,56.301 c -0.04,-0.077 -0.059,-0.16 -0.112,-0.232 L 63.273,40.445 63.171,17.516 c 4.847,-0.593 7.38,-4.035 7.38,-7.448 0,-2.04 -0.875,-3.923 -2.465,-5.304 C 66.38,3.282 63.973,2.498 61.123,2.498 l -22.201,0 c -6.479,0 -9.428,3.923 -9.428,7.569 0,3.414 2.534,6.855 7.38,7.448 L 36.772,40.443 9.266,76.739 C 9.252,76.758 9.25,76.779 9.237,76.8 9.225,76.819 9.204,76.827 9.192,76.847 6.392,81.306 6.187,86.85 8.656,91.314 c 2.142,3.874 5.908,6.188 10.073,6.188 l 7.648,0 47.245,0 7.647,0 c 4.166,0 7.933,-2.313 10.074,-6.188 2.47,-4.464 2.264,-10.008 -0.535,-14.467 z m -2.073,13.026 c -1.609,2.91 -4.4,4.649 -7.466,4.649 l -7.647,0 -47.245,0 -7.648,0 c -3.065,0 -5.856,-1.739 -7.466,-4.649 C 9.325,86.367 9.493,82 11.696,78.465 L 39.448,41.849 c 0.037,-0.048 0.046,-0.106 0.076,-0.157 0.051,-0.088 0.097,-0.173 0.129,-0.271 0.034,-0.099 0.05,-0.196 0.062,-0.298 0.007,-0.057 0.034,-0.108 0.034,-0.167 l 0.11,-24.823 c 0,-10e-4 0,-0.002 0,-0.003 0,-10e-4 0,-0.002 0,-0.003 0,-0.096 -0.037,-0.178 -0.054,-0.269 -0.02,-0.104 -0.022,-0.213 -0.062,-0.308 -0.033,-0.078 -0.094,-0.137 -0.139,-0.208 -0.058,-0.09 -0.104,-0.19 -0.179,-0.266 -0.058,-0.058 -0.137,-0.09 -0.204,-0.139 -0.088,-0.063 -0.168,-0.138 -0.269,-0.181 -0.082,-0.036 -0.178,-0.036 -0.268,-0.055 -0.103,-0.023 -0.199,-0.063 -0.308,-0.063 -0.003,0 -0.005,0 -0.007,0 -4.051,0 -5.896,-2.369 -5.896,-4.569 0,-2.285 1.994,-4.59 6.449,-4.59 l 22.202,0 c 4.455,0 6.448,2.305 6.448,4.59 0,2.2 -1.845,4.569 -5.897,4.569 -0.002,0 -0.004,0 -0.006,0 -0.109,0 -0.205,0.04 -0.309,0.063 -0.089,0.02 -0.186,0.02 -0.268,0.055 -0.101,0.043 -0.181,0.118 -0.269,0.181 -0.066,0.048 -0.146,0.081 -0.204,0.139 -0.075,0.076 -0.12,0.175 -0.179,0.266 -0.045,0.071 -0.105,0.13 -0.139,0.208 -0.041,0.095 -0.043,0.204 -0.063,0.308 -0.017,0.091 -0.054,0.173 -0.054,0.269 0,0.001 0,0.002 0,0.003 0,0.001 0,0.002 0,0.003 l 0.016,3.576 c 0,0 0.06756,15.123262 0.094,20.947 -0.083,0.405 -0.013,0.839 0.257,1.194 0,0 7.970832,10.913528 7.937,10.714 0.056,0 0.104,-0.027 0.159,-0.032 9.873097,13.58607 10.458563,13.657928 19.655,25.93 2.205,3.536 2.373,7.904 0.433,11.411 z"
             inkscape:connector-curvature="0"
             style="fill:#000000"
             sodipodi:nodetypes="cccccccscsssccccccsccscccsccsccccccccsscccccccsssssssscccccccsscccccccc" />
        </g>
      </g>
      <path
         inkscape:connector-curvature="0"
         id="path3970"
         d="m 358.625,452.75 c -8.79623,0.55955 -18.02959,-0.84153 -26.56274,0.92119 -6.66601,2.11724 -10.17025,11.70079 -4.12476,16.51631 2.76269,3.00644 7.09183,2.86197 10.40625,4.1875 1.47863,10.1244 -0.0258,21.4606 0.28125,32.0625 -0.35615,5.99165 0.30599,12.22542 -0.84375,18.09375 -18.17676,24.88306 -37.80928,48.77181 -55.125,74.25 -3.2389,9.07148 -1.4123,20.71804 7.0625,26.4375 7.8718,5.87781 18.35642,2.08234 27.4375,3.15625 36.02213,-0.14697 72.1165,0.29284 108.09375,-0.21875 14.1672,-4.41525 18.89601,-24.02477 9.15625,-34.84375 -17.24546,-23.46411 -35.43028,-46.30422 -52.5,-69.8125 0.25482,-16.38631 -0.50512,-33.33525 0.375,-49.375 5.88797,-0.40239 13.08251,-3.42829 13.59375,-10.25 0.42469,-8.47719 -9.58385,-12.04455 -16.65582,-11.07291 -6.86345,-0.15386 -13.72967,-0.0714 -20.59418,-0.0521 z m 10.8125,92.65625 c 14.62869,-0.70621 28.52757,11.85549 28.21875,26.65625 1.73711,4.21225 7.75041,3.9159 10.21875,7.78125 6.41167,5.66074 8.17159,15.37701 5.46875,23.40625 -3.46921,8.9478 -12.60145,15.26184 -22.37455,14.09234 -23.11017,0.1109 -46.31545,0.82603 -69.37545,-0.24859 C 307.82886,614.508 299.76826,597.57807 306.9375,585.5 c 2.62983,-5.72353 8.22306,-8.95766 13.5,-11.625 1.74445,-5.30957 3.20432,-12.05212 9.125,-14.25 5.04237,-2.46195 10.99832,-1.11402 15.90625,0.59375 5.51816,-7.89836 13.87565,-14.68745 23.96875,-14.8125 z"
         style="fill:#ffffff;fill-opacity:1;stroke-width:4.4000001;stroke-linecap:round;stroke-linejoin:round;stroke-miterlimit:4;stroke-dasharray:none" />
    </g>
  </g>
</svg>
