<?xml version="1.0" encoding="UTF-8" standalone="no"?>
<!-- Created with Inkscape (http://www.inkscape.org/) -->

<svg
   xmlns:dc="http://purl.org/dc/elements/1.1/"
   xmlns:cc="http://creativecommons.org/ns#"
   xmlns:rdf="http://www.w3.org/1999/02/22-rdf-syntax-ns#"
   xmlns:svg="http://www.w3.org/2000/svg"
   xmlns="http://www.w3.org/2000/svg"
   xmlns:sodipodi="http://sodipodi.sourceforge.net/DTD/sodipodi-0.dtd"
   xmlns:inkscape="http://www.inkscape.org/namespaces/inkscape"
   width="744.09448819"
   height="1052.3622047"
   id="svg2"
   version="1.1"
   inkscape:version="0.48.2 r9819"
   sodipodi:docname="scienceclouds.svg">
  <defs
     id="defs4" />
  <sodipodi:namedview
     id="base"
     pagecolor="#ffffff"
     bordercolor="#666666"
     borderopacity="1.0"
     inkscape:pageopacity="0.0"
     inkscape:pageshadow="2"
     inkscape:zoom="1.3300718"
     inkscape:cx="387.77234"
     inkscape:cy="392.84842"
     inkscape:document-units="px"
     inkscape:current-layer="layer1"
     showgrid="false"
     showguides="true"
     inkscape:guide-bbox="true"
     inkscape:window-width="1477"
     inkscape:window-height="879"
     inkscape:window-x="4"
     inkscape:window-y="0"
     inkscape:window-maximized="0">
    <sodipodi:guide
       orientation="0,1"
       position="295.47277,611.2452"
       id="guide3719" />
    <sodipodi:guide
       orientation="0,1"
       position="339.64332,400.35433"
       id="guide4574" />
    <sodipodi:guide
       orientation="0,1"
       position="340.95904,382.68611"
       id="guide4576" />
    <sodipodi:guide
       orientation="0,1"
       position="390.48263,389.68518"
       id="guide4578" />
    <sodipodi:guide
       orientation="0,1"
       position="313.23497,379.77273"
       id="guide4582" />
  </sodipodi:namedview>
  <metadata
     id="metadata7">
    <rdf:RDF>
      <cc:Work
         rdf:about="">
        <dc:format>image/svg+xml</dc:format>
        <dc:type
           rdf:resource="http://purl.org/dc/dcmitype/StillImage" />
        <dc:title></dc:title>
      </cc:Work>
    </rdf:RDF>
  </metadata>
  <g
     inkscape:label="Layer 1"
     inkscape:groupmode="layer"
     id="layer1">
    <rect
       style="fill:#000000;fill-opacity:1;stroke-width:4.4000001;stroke-linecap:round;stroke-linejoin:round;stroke-miterlimit:4;stroke-dasharray:none"
       id="rect3771"
       width="473.65863"
       height="316.52426"
       x="109.01666"
       y="420.81732" />
    <path
       style="stroke-width:0.89999998000000003;stroke-miterlimit:4;stroke-dasharray:none;fill:#ffffff;fill-opacity:1"
       d="m 405.50038,531.9737 c -14.81107,0.32952 -28.91949,9.18128 -36,22.25 -12.4022,-8.56027 -31.36424,-2.04468 -35.71875,12.375 -1.84898,3.54379 0.47736,9.21905 -4.89723,9.49639 -18.41194,6.88729 -27.44527,30.61664 -17.88402,48.03486 6.4351,13.51903 22.24054,20.79612 37.03125,18.96875 32.26014,-0.26536 64.6752,0.52113 96.84375,-0.375 20.15541,-2.57217 34.35265,-24.60314 28.15625,-44.125 -3.14681,-11.27758 -12.34184,-20.40348 -23.5625,-23.71875 0.74238,-23.51177 -20.40484,-44.22687 -43.96875,-42.90625 z m 1.40625,8.28125 c 19.7362,-0.57921 36.77585,18.47788 34.09375,38 0.53732,5.43682 7.69712,3.85108 11,6.625 14.44349,6.99254 18.84394,27.93818 8.1878,40.12462 -6.83077,9.0519 -18.96978,10.95395 -29.6253,9.87538 -30.63833,-0.18767 -61.32903,0.36188 -91.9375,-0.25 -16.48007,-1.52423 -27.84658,-20.48952 -21.4375,-35.71875 3.29401,-9.4155 12.46776,-15.60504 21.9375,-17.25 4.21527,-2.70436 0.0635,-8.84795 2.65625,-12.78125 3.38812,-10.64004 18.91074,-13.78013 26.09375,-5.125 2.88499,3.33897 7.80078,0.17689 8.03125,-3.6875 5.42634,-11.88289 17.88141,-19.93735 31,-19.8125 z"
       id="cloud2"
       inkscape:connector-curvature="0"
       inkscape:export-filename="/Users/patricka/Desktop/sciencecloudslogo.png"
       inkscape:export-xdpi="157.9688"
       inkscape:export-ydpi="157.9688" />
    <path
       id="path3587"
       d="M 316.94671,658.55664 296.47397,616.1988 v -19.75317 c 0,-4.26245 -1.48713,-5.64376 -5.64377,-5.64376 h -16.93127 c -4.0226,0 -5.64377,1.23598 -5.64377,5.64376 v 19.75317 l -20.77468,42.94338 c -1.02153,2.12347 -0.81271,5.96123 0.70688,8.37675 0.95802,1.51677 3.40742,5.1189 6.836,5.1189 h 55.47677 c 3.46527,0 5.25293,-3.62753 6.21237,-5.15699 1.36297,-2.17002 1.35873,-6.57356 0.23421,-8.9242 z m -41.63685,-40.9469 v -21.16411 h 14.10941 v 21.16411 l 11.36654,25.39693 h -36.76347 l 11.28752,-25.39693 z"
       inkscape:connector-curvature="0"
       inkscape:export-filename="/Users/patricka/Desktop/sciencecloudslogo.png"
       inkscape:export-xdpi="157.9688"
       inkscape:export-ydpi="157.9688"
       style="fill:#ffffff;fill-opacity:1" />
    <path
       id="path3589"
       d="m 293.21283,583.04712 c 5.4165,0 9.82101,-4.40707 9.82101,-9.82229 0,-5.41649 -4.40451,-9.82229 -9.82101,-9.82229 -5.41521,0 -9.82229,4.4058 -9.82229,9.82229 0,5.41522 4.40708,9.82229 9.82229,9.82229 z m 0,-14.73343 c 2.70761,0 4.91115,2.20225 4.91115,4.91114 0,2.70761 -2.20226,4.91115 -4.91115,4.91115 -2.70889,0 -4.91114,-2.20226 -4.91114,-4.91115 0,-2.70889 2.20225,-4.91114 4.91114,-4.91114 z"
       inkscape:connector-curvature="0"
       inkscape:export-filename="/Users/patricka/Desktop/sciencecloudslogo.png"
       inkscape:export-xdpi="157.9688"
       inkscape:export-ydpi="157.9688"
       style="fill:#ffffff;fill-opacity:1" />
    <path
       id="path3591"
       d="m 317.34886,569.12409 c 7.44816,0 13.50468,-6.05909 13.50468,-13.50597 0,-7.44688 -6.0578,-13.50468 -13.50468,-13.50468 -7.4456,0 -13.50341,6.05908 -13.50341,13.50468 0,7.44688 6.05781,13.50597 13.50341,13.50597 z m 0,-22.09951 c 4.73927,0 8.59482,3.85555 8.59482,8.59354 0,4.73799 -3.85555,8.59483 -8.59482,8.59483 -4.73671,0 -8.59226,-3.85555 -8.59226,-8.59483 0,-4.73927 3.85427,-8.59354 8.59226,-8.59354 z"
       inkscape:connector-curvature="0"
       inkscape:export-filename="/Users/patricka/Desktop/sciencecloudslogo.png"
       inkscape:export-xdpi="157.9688"
       inkscape:export-ydpi="157.9688"
       style="fill:#ffffff;fill-opacity:1" />
  </g>
</svg>
